<svg width="23" height="23" viewBox="0 0 23 23" fill="none" xmlns="http://www.w3.org/2000/svg">
    <path
        d="M3.95312 2.15625C2.96125 2.15625 2.15625 2.96126 2.15625 3.95313V6.10938C2.15625 6.39531 2.04266 6.66954 1.84047 6.87172C1.63829 7.07391 1.36406 7.1875 1.07812 7.1875C0.792188 7.1875 0.517963 7.07391 0.315775 6.87172C0.113588 6.66954 6.02566e-09 6.39531 0 6.10938V3.95313C0 2.9047 0.416489 1.8992 1.15784 1.15784C1.8992 0.41649 2.90469 0 3.95312 0H6.10938C6.39531 6.02567e-09 6.66954 0.113587 6.87172 0.315775C7.07391 0.517963 7.1875 0.79219 7.1875 1.07813C7.1875 1.36406 7.07391 1.63829 6.87172 1.84048C6.66954 2.04267 6.39531 2.15625 6.10938 2.15625H3.95312ZM3.95312 20.8438C2.96125 20.8438 2.15625 20.0388 2.15625 19.0469V16.8906C2.15625 16.6047 2.04266 16.3305 1.84047 16.1283C1.63829 15.9261 1.36406 15.8125 1.07812 15.8125C0.792188 15.8125 0.517963 15.9261 0.315775 16.1283C0.113588 16.3305 6.02566e-09 16.6047 0 16.8906V19.0469C0 20.0953 0.416489 21.1008 1.15784 21.8422C1.8992 22.5835 2.90469 23 3.95312 23H6.10938C6.39531 23 6.66954 22.8864 6.87172 22.6842C7.07391 22.482 7.1875 22.2078 7.1875 21.9219C7.1875 21.6359 7.07391 21.3617 6.87172 21.1595C6.66954 20.9573 6.39531 20.8438 6.10938 20.8438H3.95312ZM20.8438 3.95313C20.8438 2.96126 20.0387 2.15625 19.0469 2.15625H16.8906C16.6047 2.15625 16.3305 2.04267 16.1283 1.84048C15.9261 1.63829 15.8125 1.36406 15.8125 1.07813C15.8125 0.79219 15.9261 0.517963 16.1283 0.315775C16.3305 0.113587 16.6047 6.02567e-09 16.8906 0H19.0469C20.0953 0 21.1008 0.41649 21.8422 1.15784C22.5835 1.8992 23 2.9047 23 3.95313V6.10938C23 6.39531 22.8864 6.66954 22.6842 6.87172C22.482 7.07391 22.2078 7.1875 21.9219 7.1875C21.6359 7.1875 21.3617 7.07391 21.1595 6.87172C20.9573 6.66954 20.8438 6.39531 20.8438 6.10938V3.95313ZM19.0469 20.8438C20.0387 20.8438 20.8438 20.0388 20.8438 19.0469V16.8906C20.8438 16.6047 20.9573 16.3305 21.1595 16.1283C21.3617 15.9261 21.6359 15.8125 21.9219 15.8125C22.2078 15.8125 22.482 15.9261 22.6842 16.1283C22.8864 16.3305 23 16.6047 23 16.8906V19.0469C23 20.0953 22.5835 21.1008 21.8422 21.8422C21.1008 22.5835 20.0953 23 19.0469 23H16.8906C16.6047 23 16.3305 22.8864 16.1283 22.6842C15.9261 22.482 15.8125 22.2078 15.8125 21.9219C15.8125 21.6359 15.9261 21.3617 16.1283 21.1595C16.3305 20.9573 16.6047 20.8438 16.8906 20.8438H19.0469Z"
        fill="#ffffff" />
    <path
        d="M6.28428 5.30754C6.4663 5.11062 6.71317 5 6.97059 5H16.0294C16.2868 5 16.5337 5.11062 16.7157 5.30754C16.8977 5.50445 17 5.77152 17 6.05V7.45C17 7.72848 16.8977 7.99555 16.7157 8.19246C16.5337 8.38938 16.2868 8.5 16.0294 8.5C15.772 8.5 15.5251 8.38938 15.3431 8.19246C15.1611 7.99555 15.0588 7.72848 15.0588 7.45V7.1H12.4706V16.9H12.7941C13.0515 16.9 13.2984 17.0106 13.4804 17.2075C13.6624 17.4045 13.7647 17.6715 13.7647 17.95C13.7647 18.2285 13.6624 18.4955 13.4804 18.6925C13.2984 18.8894 13.0515 19 12.7941 19H10.2059C9.94847 19 9.70159 18.8894 9.51957 18.6925C9.33755 18.4955 9.23529 18.2285 9.23529 17.95C9.23529 17.6715 9.33755 17.4045 9.51957 17.2075C9.70159 17.0106 9.94847 16.9 10.2059 16.9H10.5294V7.1H7.94118V7.45C7.94118 7.72848 7.83892 7.99555 7.6569 8.19246C7.47488 8.38938 7.228 8.5 6.97059 8.5C6.71317 8.5 6.4663 8.38938 6.28428 8.19246C6.10226 7.99555 6 7.72848 6 7.45V6.05C6 5.77152 6.10226 5.50445 6.28428 5.30754Z"
        fill="#ffffff" />
</svg>