<svg width="23" height="23" viewBox="0 0 23 23" fill="none" xmlns="http://www.w3.org/2000/svg">
    <path
        d="M3.95312 2.15625C2.96125 2.15625 2.15625 2.96126 2.15625 3.95313V6.10938C2.15625 6.39531 2.04266 6.66954 1.84047 6.87172C1.63829 7.07391 1.36406 7.1875 1.07812 7.1875C0.792188 7.1875 0.517963 7.07391 0.315775 6.87172C0.113588 6.66954 6.02566e-09 6.39531 0 6.10938V3.95313C0 2.9047 0.416489 1.8992 1.15784 1.15784C1.8992 0.41649 2.90469 0 3.95312 0H6.10938C6.39531 6.02567e-09 6.66954 0.113587 6.87172 0.315775C7.07391 0.517963 7.1875 0.79219 7.1875 1.07813C7.1875 1.36406 7.07391 1.63829 6.87172 1.84048C6.66954 2.04267 6.39531 2.15625 6.10938 2.15625H3.95312ZM3.95312 20.8438C2.96125 20.8438 2.15625 20.0388 2.15625 19.0469V16.8906C2.15625 16.6047 2.04266 16.3305 1.84047 16.1283C1.63829 15.9261 1.36406 15.8125 1.07812 15.8125C0.792188 15.8125 0.517963 15.9261 0.315775 16.1283C0.113588 16.3305 6.02566e-09 16.6047 0 16.8906V19.0469C0 20.0953 0.416489 21.1008 1.15784 21.8422C1.8992 22.5835 2.90469 23 3.95312 23H6.10938C6.39531 23 6.66954 22.8864 6.87172 22.6842C7.07391 22.482 7.1875 22.2078 7.1875 21.9219C7.1875 21.6359 7.07391 21.3617 6.87172 21.1595C6.66954 20.9573 6.39531 20.8438 6.10938 20.8438H3.95312ZM20.8438 3.95313C20.8438 2.96126 20.0387 2.15625 19.0469 2.15625H16.8906C16.6047 2.15625 16.3305 2.04267 16.1283 1.84048C15.9261 1.63829 15.8125 1.36406 15.8125 1.07813C15.8125 0.79219 15.9261 0.517963 16.1283 0.315775C16.3305 0.113587 16.6047 6.02567e-09 16.8906 0H19.0469C20.0953 0 21.1008 0.41649 21.8422 1.15784C22.5835 1.8992 23 2.9047 23 3.95313V6.10938C23 6.39531 22.8864 6.66954 22.6842 6.87172C22.482 7.07391 22.2078 7.1875 21.9219 7.1875C21.6359 7.1875 21.3617 7.07391 21.1595 6.87172C20.9573 6.66954 20.8438 6.39531 20.8438 6.10938V3.95313ZM19.0469 20.8438C20.0387 20.8438 20.8438 20.0388 20.8438 19.0469V16.8906C20.8438 16.6047 20.9573 16.3305 21.1595 16.1283C21.3617 15.9261 21.6359 15.8125 21.9219 15.8125C22.2078 15.8125 22.482 15.9261 22.6842 16.1283C22.8864 16.3305 23 16.6047 23 16.8906V19.0469C23 20.0953 22.5835 21.1008 21.8422 21.8422C21.1008 22.5835 20.0953 23 19.0469 23H16.8906C16.6047 23 16.3305 22.8864 16.1283 22.6842C15.9261 22.482 15.8125 22.2078 15.8125 21.9219C15.8125 21.6359 15.9261 21.3617 16.1283 21.1595C16.3305 20.9573 16.6047 20.8438 16.8906 20.8438H19.0469Z"
        fill="#ffffff" />
    <path
        d="M7.23259 6.2636C7.38152 6.09482 7.5835 6 7.79412 6H15.2059C15.4165 6 15.6185 6.09482 15.7674 6.2636C15.9163 6.43239 16 6.66131 16 6.9V8.1C16 8.33869 15.9163 8.56761 15.7674 8.7364C15.6185 8.90518 15.4165 9 15.2059 9C14.9953 9 14.7933 8.90518 14.6444 8.7364C14.4954 8.56761 14.4118 8.33869 14.4118 8.1V7.8H12.2941V16.2H12.5588C12.7694 16.2 12.9714 16.2948 13.1203 16.4636C13.2693 16.6324 13.3529 16.8613 13.3529 17.1C13.3529 17.3387 13.2693 17.5676 13.1203 17.7364C12.9714 17.9052 12.7694 18 12.5588 18H10.4412C10.2306 18 10.0286 17.9052 9.87965 17.7364C9.73073 17.5676 9.64706 17.3387 9.64706 17.1C9.64706 16.8613 9.73073 16.6324 9.87965 16.4636C10.0286 16.2948 10.2306 16.2 10.4412 16.2H10.7059V7.8H8.58824V8.1C8.58824 8.33869 8.50457 8.56761 8.35564 8.7364C8.20672 8.90518 8.00473 9 7.79412 9C7.5835 9 7.38152 8.90518 7.23259 8.7364C7.08367 8.56761 7 8.33869 7 8.1V6.9C7 6.66131 7.08367 6.43239 7.23259 6.2636Z"
        fill="#ffffff" />
</svg>