<svg width="347" height="114" viewBox="0 0 347 114" fill="none" xmlns="http://www.w3.org/2000/svg">
<rect x="42.5" y="29.5" width="140" height="64" rx="4.5" fill="#414141" stroke="black"/>
<path d="M69.2068 65.5259V54.415H66.009V51.8496H69.3332L69.7487 45.9238H72.6032V51.8496H77.4089V54.415H72.6032V65.3091C72.6032 66.5737 72.9766 67.3867 73.7234 67.748C74.4701 68.1094 75.6504 68.29 77.2644 68.29H77.6438L77.2824 71.1445H76.7766C74.163 71.1445 72.2479 70.735 71.0315 69.916C69.815 69.097 69.2068 67.6336 69.2068 65.5259ZM84.6521 78.335V75.6792C85.989 75.6792 87.079 75.4082 87.9221 74.8662C88.7652 74.3242 89.4758 73.3607 90.0539 71.9756L90.3972 71.1626L82.448 51.8496H85.9529L91.8967 67.1338L96.8288 51.8496H100.225L92.9265 72.7705C92.2761 74.6374 91.3306 76.0285 90.0901 76.9438C88.8495 77.8713 87.0368 78.335 84.6521 78.335ZM106.114 78.3711V51.8496H108.787L109.185 53.2949C109.691 52.8372 110.419 52.4217 111.371 52.0483C112.334 51.675 113.364 51.4883 114.46 51.4883C116.905 51.4883 118.724 52.0845 119.916 53.2769C121.121 54.4692 121.723 55.9868 121.723 57.8296V64.7852C121.723 66.7122 121.06 68.2961 119.736 69.5366C118.423 70.7772 116.52 71.3975 114.027 71.3975C112.955 71.3975 112.045 71.283 111.299 71.0542C110.564 70.8374 109.968 70.6146 109.51 70.3857V78.3711H106.114ZM113.81 68.7959C115.147 68.7959 116.231 68.4827 117.062 67.8564C117.905 67.2181 118.326 66.3148 118.326 65.1465V57.5586C118.326 56.4144 117.905 55.5532 117.062 54.9751C116.231 54.3849 115.189 54.0898 113.936 54.0898C113.141 54.0898 112.425 54.2284 111.786 54.5054C111.16 54.7703 110.648 55.0654 110.251 55.3906C109.865 55.7158 109.618 55.9567 109.51 56.1133V67.7661C109.944 68.007 110.522 68.2419 111.244 68.4707C111.967 68.6875 112.822 68.7959 113.81 68.7959ZM128.551 64.2432V57.5767C128.551 55.77 129.171 54.3066 130.411 53.1865C131.652 52.0544 133.645 51.4883 136.391 51.4883C139.017 51.4883 140.95 52.0062 142.191 53.042C143.431 54.0658 144.052 55.487 144.052 57.3057V61.8584H131.947V64.5503C131.947 66.104 132.254 67.2 132.868 67.8384C133.495 68.4767 134.711 68.7959 136.518 68.7959C137.59 68.7959 138.433 68.7598 139.047 68.6875C139.673 68.6032 140.131 68.3623 140.42 67.9648C140.721 67.5553 140.92 66.8688 141.016 65.9053H144.015C143.859 67.4108 143.528 68.561 143.022 69.356C142.528 70.1388 141.763 70.6748 140.727 70.9639C139.692 71.2529 138.288 71.3975 136.518 71.3975C133.663 71.3975 131.622 70.8013 130.393 69.6089C129.165 68.4165 128.551 66.6279 128.551 64.2432ZM140.763 59.564V56.9443C140.763 55.7881 140.36 55.0233 139.553 54.6499C138.758 54.2765 137.704 54.0898 136.391 54.0898C135.042 54.0898 133.964 54.3247 133.158 54.7944C132.351 55.2642 131.947 56.0892 131.947 57.2695V59.564H140.763Z" fill="white"/>
<mask id="path-3-inside-1_92_308" fill="white">
<path d="M22 39H151V83H22V39Z"/>
</mask>
<path d="M149 39V83H153V39H149Z" fill="white" mask="url(#path-3-inside-1_92_308)"/>
<rect x="169" y="29" width="168" height="65" rx="10" fill="#D9D9D9"/>
<path d="M178 44C178 38.4772 182.477 34 188 34H317C322.523 34 327 38.4772 327 44V74C327 79.5228 322.523 84 317 84H188C182.477 84 178 79.5228 178 74V44Z" fill="#F0F0F0"/>
<path d="M199.731 71H195.185V50.7998C195.185 49.4098 195.453 48.242 195.988 47.2964C196.523 46.3394 197.287 45.6159 198.278 45.126C199.269 44.6361 200.437 44.3911 201.781 44.3911C202.226 44.3911 202.647 44.4196 203.046 44.4766C203.456 44.5335 203.861 44.6133 204.259 44.7158L204.174 48.1509C203.958 48.0939 203.718 48.054 203.456 48.0312C203.206 48.0085 202.926 47.9971 202.619 47.9971C202.004 47.9971 201.48 48.1053 201.047 48.3218C200.614 48.5382 200.283 48.8573 200.055 49.2788C199.839 49.689 199.731 50.196 199.731 50.7998V71ZM203.473 52.5088V55.7559H192.399V52.5088H203.473ZM217.845 67.0693V58.5415C217.845 57.9149 217.736 57.3737 217.52 56.918C217.303 56.4622 216.973 56.109 216.529 55.8584C216.084 55.6077 215.52 55.4824 214.837 55.4824C214.233 55.4824 213.703 55.585 213.247 55.79C212.803 55.9951 212.461 56.2856 212.222 56.6616C211.983 57.0262 211.863 57.4478 211.863 57.9263H207.334C207.334 57.1629 207.517 56.4395 207.881 55.7559C208.246 55.0609 208.764 54.4456 209.436 53.9102C210.12 53.3633 210.935 52.936 211.88 52.6284C212.837 52.3208 213.908 52.167 215.093 52.167C216.494 52.167 217.742 52.4062 218.836 52.8848C219.941 53.3519 220.807 54.0583 221.433 55.0039C222.071 55.9495 222.39 57.1401 222.39 58.5757V66.6421C222.39 67.5649 222.447 68.3568 222.561 69.0176C222.687 69.667 222.869 70.231 223.108 70.7095V71H218.511C218.295 70.5329 218.129 69.9404 218.015 69.2227C217.901 68.4935 217.845 67.7757 217.845 67.0693ZM218.477 59.7378L218.511 62.4209H215.657C214.951 62.4209 214.33 62.495 213.794 62.6431C213.259 62.7798 212.82 62.9849 212.478 63.2583C212.137 63.5203 211.88 63.8394 211.709 64.2153C211.538 64.5799 211.453 64.9958 211.453 65.4629C211.453 65.9186 211.555 66.3288 211.761 66.6934C211.977 67.0579 212.285 67.3485 212.683 67.5649C213.094 67.77 213.572 67.8726 214.119 67.8726C214.916 67.8726 215.611 67.7131 216.204 67.394C216.796 67.0636 217.258 66.6649 217.588 66.1978C217.919 65.7306 218.095 65.2863 218.118 64.8647L219.417 66.813C219.257 67.2801 219.018 67.7757 218.699 68.2998C218.38 68.8239 217.97 69.3138 217.469 69.7695C216.967 70.2253 216.363 70.6012 215.657 70.8975C214.951 71.1937 214.13 71.3418 213.196 71.3418C212 71.3418 210.929 71.1025 209.983 70.624C209.038 70.1455 208.291 69.4904 207.744 68.6587C207.198 67.827 206.924 66.8813 206.924 65.8218C206.924 64.842 207.106 63.9761 207.471 63.2241C207.836 62.4722 208.377 61.8398 209.095 61.3271C209.812 60.8031 210.701 60.41 211.761 60.1479C212.832 59.8745 214.056 59.7378 215.435 59.7378H218.477ZM235.446 67.7871C236.084 67.7871 236.653 67.6618 237.155 67.4111C237.656 67.1605 238.055 66.8073 238.351 66.3516C238.659 65.8958 238.824 65.366 238.847 64.7622H243.102C243.079 66.0155 242.726 67.1377 242.042 68.1289C241.359 69.1201 240.447 69.9062 239.308 70.4873C238.18 71.057 236.915 71.3418 235.514 71.3418C234.09 71.3418 232.848 71.1025 231.788 70.624C230.729 70.1455 229.846 69.479 229.14 68.6245C228.445 67.77 227.92 66.7788 227.567 65.6509C227.225 64.5229 227.055 63.3153 227.055 62.0278V61.481C227.055 60.1935 227.225 58.9858 227.567 57.8579C227.92 56.73 228.445 55.7388 229.14 54.8843C229.846 54.0298 230.729 53.3633 231.788 52.8848C232.848 52.4062 234.084 52.167 235.497 52.167C236.989 52.167 238.3 52.4575 239.428 53.0386C240.567 53.6196 241.456 54.4399 242.094 55.4995C242.743 56.5591 243.079 57.8066 243.102 59.2422H238.847C238.824 58.5814 238.676 57.9889 238.402 57.4648C238.129 56.9408 237.741 56.5192 237.24 56.2002C236.739 55.8812 236.129 55.7217 235.412 55.7217C234.648 55.7217 234.01 55.8812 233.497 56.2002C232.996 56.5192 232.603 56.9578 232.318 57.5161C232.045 58.063 231.851 58.6782 231.737 59.3618C231.635 60.034 231.583 60.7404 231.583 61.481V62.0278C231.583 62.7798 231.635 63.4976 231.737 64.1812C231.851 64.8647 232.045 65.48 232.318 66.0269C232.603 66.5623 232.996 66.9896 233.497 67.3086C234.01 67.6276 234.66 67.7871 235.446 67.7871ZM255.815 71.3418C254.414 71.3418 253.155 71.1139 252.039 70.6582C250.922 70.2025 249.971 69.5701 249.185 68.7612C248.41 67.9409 247.812 66.9896 247.39 65.9072C246.98 64.8135 246.775 63.64 246.775 62.3867V61.7031C246.775 60.279 246.98 58.9858 247.39 57.8237C247.8 56.6502 248.381 55.6419 249.133 54.7988C249.885 53.9557 250.785 53.3063 251.833 52.8506C252.882 52.3949 254.038 52.167 255.303 52.167C256.613 52.167 257.769 52.3892 258.772 52.8335C259.775 53.2664 260.612 53.8817 261.284 54.6792C261.956 55.4767 262.463 56.4338 262.805 57.5503C263.147 58.6554 263.318 59.8802 263.318 61.2246V63.1216H248.826V60.0112H258.875V59.6694C258.852 58.9517 258.715 58.2965 258.464 57.7041C258.214 57.1003 257.826 56.6217 257.302 56.2686C256.778 55.904 256.1 55.7217 255.269 55.7217C254.596 55.7217 254.01 55.8698 253.508 56.166C253.018 56.4508 252.608 56.861 252.278 57.3965C251.959 57.9206 251.72 58.5472 251.56 59.2764C251.401 60.0055 251.321 60.8145 251.321 61.7031V62.3867C251.321 63.1615 251.423 63.8792 251.628 64.54C251.845 65.2008 252.158 65.7762 252.568 66.2661C252.99 66.7446 253.491 67.1206 254.072 67.394C254.665 67.6561 255.337 67.7871 256.089 67.7871C257.035 67.7871 257.889 67.6048 258.652 67.2402C259.427 66.8643 260.099 66.3117 260.669 65.5825L262.942 67.9409C262.555 68.5106 262.03 69.0575 261.37 69.5815C260.72 70.1056 259.934 70.5329 259.011 70.8633C258.088 71.1823 257.023 71.3418 255.815 71.3418ZM266.94 61.9424V61.5835C266.94 60.2277 267.133 58.9801 267.521 57.8408C267.908 56.6901 268.472 55.6932 269.212 54.8501C269.953 54.007 270.859 53.3519 271.93 52.8848C273.001 52.4062 274.22 52.167 275.587 52.167C276.977 52.167 278.207 52.4062 279.278 52.8848C280.361 53.3519 281.272 54.007 282.013 54.8501C282.753 55.6932 283.317 56.6901 283.705 57.8408C284.092 58.9801 284.286 60.2277 284.286 61.5835V61.9424C284.286 63.2868 284.092 64.5343 283.705 65.6851C283.317 66.8244 282.753 67.8213 282.013 68.6758C281.272 69.5189 280.366 70.174 279.296 70.6411C278.225 71.1082 277 71.3418 275.621 71.3418C274.254 71.3418 273.029 71.1082 271.947 70.6411C270.865 70.174 269.953 69.5189 269.212 68.6758C268.472 67.8213 267.908 66.8244 267.521 65.6851C267.133 64.5343 266.94 63.2868 266.94 61.9424ZM271.451 61.5835V61.9424C271.451 62.7513 271.531 63.509 271.691 64.2153C271.85 64.9217 272.095 65.5426 272.425 66.0781C272.756 66.6136 273.183 67.0352 273.707 67.3428C274.243 67.639 274.881 67.7871 275.621 67.7871C276.35 67.7871 276.977 67.639 277.501 67.3428C278.025 67.0352 278.452 66.6136 278.783 66.0781C279.125 65.5426 279.375 64.9217 279.535 64.2153C279.694 63.509 279.774 62.7513 279.774 61.9424V61.5835C279.774 60.786 279.694 60.0397 279.535 59.3447C279.375 58.6383 279.125 58.0174 278.783 57.4819C278.452 56.9351 278.019 56.5078 277.484 56.2002C276.96 55.8812 276.328 55.7217 275.587 55.7217C274.858 55.7217 274.231 55.8812 273.707 56.2002C273.183 56.5078 272.756 56.9351 272.425 57.4819C272.095 58.0174 271.85 58.6383 271.691 59.3447C271.531 60.0397 271.451 60.786 271.451 61.5835ZM294.88 71H290.334V50.7998C290.334 49.4098 290.602 48.242 291.137 47.2964C291.673 46.3394 292.436 45.6159 293.427 45.126C294.419 44.6361 295.586 44.3911 296.931 44.3911C297.375 44.3911 297.797 44.4196 298.196 44.4766C298.606 44.5335 299.01 44.6133 299.409 44.7158L299.323 48.1509C299.107 48.0939 298.868 48.054 298.606 48.0312C298.355 48.0085 298.076 47.9971 297.768 47.9971C297.153 47.9971 296.629 48.1053 296.196 48.3218C295.763 48.5382 295.433 48.8573 295.205 49.2788C294.988 49.689 294.88 50.196 294.88 50.7998V71ZM298.623 52.5088V55.7559H287.549V52.5088H298.623ZM308.721 71H304.176V50.7998C304.176 49.4098 304.443 48.242 304.979 47.2964C305.514 46.3394 306.278 45.6159 307.269 45.126C308.26 44.6361 309.428 44.3911 310.772 44.3911C311.217 44.3911 311.638 44.4196 312.037 44.4766C312.447 44.5335 312.852 44.6133 313.25 44.7158L313.165 48.1509C312.948 48.0939 312.709 48.054 312.447 48.0312C312.196 48.0085 311.917 47.9971 311.61 47.9971C310.994 47.9971 310.47 48.1053 310.037 48.3218C309.604 48.5382 309.274 48.8573 309.046 49.2788C308.83 49.689 308.721 50.196 308.721 50.7998V71ZM312.464 52.5088V55.7559H301.39V52.5088H312.464Z" fill="#808080"/>
</svg>
